<svg xmlns="http://www.w3.org/2000/svg" viewBox="0 0 64 64" fill="none">
  <!-- Fundo navy arredondado -->
  <rect width="64" height="64" rx="14" fill="#1C3049"/>
  <!-- Ícone Horizon (34.5×41) centralizado: translate((64-34.5)/2, (64-41)/2) = translate(14.75, 11.5) -->
  <g transform="translate(14.75, 11.5)">
    <path d="M33.7743 30.0997C33.9669 30.066 33.9936 30.0684 34.1856 30.1069C34.2532 30.3565 34.2271 32.5602 34.2267 32.9896L34.2178 40.215L0.461596 40.2218C0.263669 40.2312 0.170444 40.2509 0 40.1546C0.0445824 39.9038 0.514534 38.6219 0.618845 38.3268L2.03229 34.3412C12.1566 32.2995 23.4389 30.5452 33.7743 30.0997Z" fill="#263C59"/>
    <path d="M26.6722 12.7117C29.1524 11.0313 31.9225 8.76535 34.2304 6.85053L34.1934 8.39442C34.3722 14.7969 34.1943 21.6313 34.2487 28.084C31.3586 28.194 28.473 28.4018 25.5969 28.707L26.3224 17.7285C26.3623 17.1426 26.5348 13.9808 26.6312 13.5845C26.6177 13.4135 26.6599 12.9095 26.6722 12.7117Z" fill="#C19C63"/>
    <path d="M26.6725 12.7117C29.1528 11.0313 31.9228 8.76535 34.2307 6.85053L34.1937 8.39442C33.7128 9.18273 34.2371 11.8182 34.081 12.3739C33.8896 12.291 33.8181 12.2616 33.6504 12.1394C32.6007 12.0966 29.12 14.7832 28.0631 15.3957C27.86 15.5133 26.9053 16.3552 26.7605 16.4094C26.746 15.2033 26.7963 14.8311 26.6315 13.5845C26.618 13.4135 26.6602 12.9095 26.6725 12.7117Z" fill="#DAB77F"/>
    <path d="M24.4967 14.1994L24.5776 14.2678C24.6382 14.6051 24.4116 17.5813 24.3768 18.13L23.6714 28.9053C20.6754 29.1981 17.6803 29.7406 14.7697 30.0205L14.7485 29.9974C14.7372 29.7947 15.1862 27.5066 15.2517 27.1402L16.6661 19.1744C19.2783 17.4488 21.8181 16.1244 24.4967 14.1994Z" fill="#D5B278"/>
    <path d="M14.3886 20.4738L14.4339 20.53C14.346 21.4832 14.0714 22.6293 13.9082 23.5861C13.5317 25.7936 12.9788 28.195 12.7111 30.4046C9.47849 30.8864 6.12771 31.5912 2.92527 32.2768L2.88888 32.2326C2.8304 31.9324 4.95232 26.123 5.23317 25.3331C5.87364 24.9521 7.38468 24.2587 8.14141 23.875C10.3263 22.7672 12.2682 21.7054 14.3886 20.4738Z" fill="#C8A46C"/>
    <path d="M15.7076 12.9581L15.8248 13.0051C15.6012 14.5938 15.2012 16.5173 14.8919 18.1113C12.7291 19.4983 8.63537 21.6501 6.2903 22.7946L6.22714 22.7925L6.18115 22.6941C6.80054 20.87 7.47217 18.8086 8.18018 17.0353C8.64943 16.719 10.1546 15.9974 10.7321 15.6915C12.4046 14.8061 14.0633 13.8948 15.7076 12.9581Z" fill="#DAB77F"/>
    <path d="M25.1155 7.02413C25.2163 7.34165 24.8483 11.183 24.8024 11.8173C22.3006 13.564 19.7406 15.2262 17.127 16.8008C17.0686 16.3776 17.8976 12.3073 18.0267 11.6162C20.4613 10.0792 22.7258 8.64227 25.1155 7.02413Z" fill="#DAB77F"/>
    <path d="M34.1336 0C34.2698 0.185322 34.2417 3.99045 34.2452 4.47003C31.7288 6.62434 29.6117 8.35474 26.9272 10.3158L26.8174 10.2701C26.9013 8.73152 27.0287 7.15906 27.1368 5.61938C27.7168 5.08591 28.9604 4.22961 29.6252 3.70303C31.1473 2.4974 32.6911 1.30469 34.1336 0Z" fill="#B7925F"/>
  </g>
</svg>
