<svg width="27" height="32" viewBox="0 0 27 32" fill="none" xmlns="http://www.w3.org/2000/svg">
<path d="M26.6053 23.9421C26.7571 23.9152 26.7781 23.9172 26.9293 23.9478C26.9826 24.1463 26.9621 25.8992 26.9617 26.2407L26.9547 31.988L0.363618 31.9934C0.207702 32.0009 0.134265 32.0166 0 31.94C0.0351193 31.7405 0.405318 30.7208 0.487489 30.4861L1.60091 27.3158C9.5762 25.6918 18.4637 24.2964 26.6053 23.9421Z" fill="#263C59"/>
<path d="M21.0111 10.1112C22.9649 8.77455 25.1469 6.97219 26.965 5.4491L26.9358 6.67715C27.0767 11.7698 26.9366 17.2061 26.9794 22.3387C24.7028 22.4262 22.4297 22.5915 20.1641 22.8343L20.7356 14.1017C20.767 13.6356 20.9029 11.1207 20.9788 10.8054C20.9682 10.6694 21.0014 10.2685 21.0111 10.1112Z" fill="#C19C63"/>
<path d="M21.0109 10.1112C22.9647 8.77455 25.1468 6.97219 26.9648 5.4491L26.9356 6.67715C26.5568 7.30418 26.9698 9.40053 26.8469 9.84251C26.6961 9.77655 26.6398 9.7532 26.5077 9.65602C25.6808 9.62198 22.9389 11.7589 22.1063 12.2461C21.9464 12.3397 21.1943 13.0094 21.0802 13.0525C21.0688 12.0931 21.1084 11.7971 20.9786 10.8054C20.968 10.6694 21.0012 10.2685 21.0109 10.1112Z" fill="#DAB77F"/>
<path d="M19.2973 11.2946L19.3611 11.349C19.4089 11.6173 19.2303 13.9847 19.2029 14.4211L18.6472 22.992C16.2872 23.2249 13.9278 23.6564 11.635 23.8791L11.6183 23.8607C11.6094 23.6994 11.9631 21.8794 12.0147 21.588L13.1289 15.2518C15.1867 13.8792 17.1873 12.8258 19.2973 11.2946Z" fill="#D5B278"/>
<path d="M11.3341 16.2853L11.3698 16.3301C11.3006 17.0882 11.0843 17.9999 10.9557 18.7609C10.6592 20.5169 10.2236 22.427 10.0127 24.1845C7.46624 24.5678 4.8267 25.1284 2.30401 25.6738L2.27535 25.6386C2.22928 25.3998 3.9008 20.7789 4.12204 20.1506C4.62656 19.8475 5.81687 19.296 6.41297 18.9908C8.13406 18.1096 9.66382 17.265 11.3341 16.2853Z" fill="#C8A46C"/>
<path d="M12.3735 10.3073L12.4658 10.3446C12.2897 11.6083 11.9746 13.1383 11.7309 14.4062C10.0272 15.5095 6.80243 17.221 4.95512 18.1314L4.90537 18.1298L4.86914 18.0515C5.35706 16.6006 5.88613 14.9609 6.44385 13.5504C6.8135 13.2987 7.99919 12.7247 8.45408 12.4815C9.77158 11.7772 11.0783 11.0523 12.3735 10.3073Z" fill="#DAB77F"/>
<path d="M19.7845 5.58722C19.8639 5.83978 19.574 8.89529 19.5378 9.3998C17.567 10.7892 15.5505 12.1113 13.4916 13.3638C13.4456 13.0272 14.0986 9.7896 14.2004 9.23988C16.1181 8.0173 17.902 6.87433 19.7845 5.58722Z" fill="#DAB77F"/>
<path d="M26.8883 0C26.9956 0.147409 26.9734 3.1741 26.9762 3.55558C24.9939 5.26916 23.3262 6.64557 21.2115 8.20543L21.125 8.1691C21.1911 6.94528 21.2914 5.6945 21.3766 4.4698C21.8335 4.04546 22.8131 3.36434 23.3368 2.94548C24.5359 1.98649 25.752 1.03778 26.8883 0Z" fill="#B7925F"/>
</svg>
